<?xml version="1.0" encoding="UTF-8"?>
<svg width="136px" height="136px" viewBox="0 0 136 136" version="1.1" xmlns="http://www.w3.org/2000/svg" xmlns:xlink="http://www.w3.org/1999/xlink">
    <!-- Generator: Sketch 48.2 (47327) - http://www.bohemiancoding.com/sketch -->
    <title>Shape</title>
    <desc>Created with Sketch.</desc>
    <defs></defs>
    <g id="Page-1" stroke="none" stroke-width="1" fill="none" fill-rule="evenodd">
        <g id="blue_gear" fill="#9E9E9E">
            <path d="M122.8,87.8 L132.4,89.1 L135.7,64.3 L126.1,63 C125.5,56.2 123.8,49.5 120.8,43.2 L128.5,37.3 L113.3,17.5 L105.6,23.4 C100.2,18.9 94.2,15.4 87.8,13.1 L89.1,3.5 L64.3,0.3 L63,9.9 C56.2,10.5 49.5,12.2 43.2,15.2 L37.3,7.5 L17.5,22.7 L23.4,30.4 C18.9,35.8 15.4,41.8 13.1,48.2 L3.5,46.9 L0.3,71.7 L9.9,73 C10.5,79.8 12.2,86.5 15.2,92.8 L7.5,98.7 L22.7,118.5 L30.4,112.6 C35.8,117.1 41.8,120.6 48.2,122.9 L46.9,132.5 L71.7,135.8 L73,126.2 C79.8,125.6 86.5,123.9 92.8,120.9 L98.7,128.6 L118.5,113.4 L112.6,105.7 C117.1,100.3 120.5,94.2 122.8,87.8 M109.3,73.3 L109.2,73.7 C107.8,84.2 102.4,94.1 93.3,101.1 C84.2,108.1 73.2,110.7 62.7,109.4 L62.3,109.3 C51.8,107.9 41.8,102.5 34.9,93.4 C27.9,84.3 25.3,73.2 26.7,62.6 C28.1,52 33.5,42 42.6,35 C51.7,28 62.8,25.4 73.4,26.8 C84,28.2 94,33.6 101,42.7 C108,51.7 110.7,62.7 109.3,73.3" id="Shape"></path>
        </g>
    </g>
</svg>