<?xml version="1.0" encoding="UTF-8"?>
<svg width="134px" height="138px" viewBox="0 0 134 138" version="1.1" xmlns="http://www.w3.org/2000/svg" xmlns:xlink="http://www.w3.org/1999/xlink">
    <!-- Generator: Sketch 48.2 (47327) - http://www.bohemiancoding.com/sketch -->
    <title>green_gear</title>
    <desc>Created with Sketch.</desc>
    <defs></defs>
    <g id="Page-1" stroke="none" stroke-width="1" fill="none" fill-rule="evenodd">
        <g id="green_gear" fill="#9E9E9E">
            <path d="M108.6,57.6 L108.7,58 C111.5,68.6 110.3,80.3 104.3,90.5 C98.4,100.7 88.9,107.6 78.3,110.5 L77.9,110.6 C67.3,113.4 55.6,112.2 45.4,106.3 C35.1,100.3 28.2,90.8 25.3,80.1 C22.4,69.4 23.7,57.7 29.6,47.4 C35.5,37.1 45.1,30.2 55.8,27.3 C66.5,24.5 78.2,25.7 88.5,31.6 C98.8,37.6 105.7,47.1 108.6,57.6 M125.1,53.2 L125.2,53.6 C128.2,64.7 127.8,76.4 124.4,87.2 L133.2,92.3 L120.3,114.7 L111.5,109.6 C103.9,118 94,124.1 82.8,127.1 L82.4,127.2 C81.6,127.4 80.8,127.6 79.9,127.8 L79.9,137.9 L54.1,137.9 L54.1,127.8 C48.1,126.5 42.3,124.2 36.9,121.1 C31.5,118 26.7,114.1 22.5,109.6 L13.7,114.7 L0.8,92.3 L9.6,87.2 C9.3,86.3 9.1,85.5 8.8,84.6 C5.8,73.4 6.1,61.7 9.6,50.8 L0.8,45.7 L13.7,23.3 L22.5,28.4 C30.2,20 40.2,13.8 51.4,10.8 C52.3,10.6 53.2,10.4 54.1,10.2 L54.1,0.1 L79.9,0.1 L79.9,10.3 C85.9,11.6 91.7,13.8 97.1,16.9 C102.5,20 107.3,23.9 111.5,28.4 L120.3,23.3 L133.2,45.7 L124.4,50.8 C124.6,51.6 124.9,52.4 125.1,53.2" id="Shape"></path>
        </g>
    </g>
</svg>