<?xml version="1.0" encoding="utf-8"?>
<!-- Generator: Adobe Illustrator 22.0.1, SVG Export Plug-In . SVG Version: 6.00 Build 0)  -->
<svg version="1.1" id="Layer_1" xmlns="http://www.w3.org/2000/svg" xmlns:xlink="http://www.w3.org/1999/xlink" x="0px" y="0px"
	 viewBox="0 0 201 207.3" style="enable-background:new 0 0 201 207.3;" xml:space="preserve">
<style type="text/css">
	.st0{fill:#1C94D2;}
	.st1{fill:#81C141;}
	.st2{fill:#FFFFFF;}
</style>
<g id="Gear-Chat_Bubble_1_">
	<path class="st0" d="M63.8,62.8l-8.7-1.2l-2.9,22.3l8.7,1.2c0.5,6.1,2.1,12.1,4.7,17.8l-6.9,5.3L72.5,126l6.9-5.3
		c4.9,4.1,10.3,7.1,15.9,9.2l-1.2,8.6l22.3,2.9l1.2-8.7c6.1-0.5,12.1-2.1,17.8-4.7l5.3,6.9l17.8-13.7l-5.3-6.9
		c4.1-4.7,7.1-10.3,9.2-15.9l8.6,1.2l2.9-22.3l-8.7-1.2c-0.5-6.1-2.1-12.1-4.7-17.8l6.9-5.3l-13.7-17.8l-6.9,5.3
		c-4.9-4.1-10.3-7.1-15.9-9.2l1.2-8.7l-22.3-2.9l-1.2,8.7c-6.1,0.5-12.1,2.1-17.8,4.7l-5.3-6.9L67.6,39.9l5.3,6.9
		C68.9,51.6,65.9,57,63.8,62.8z M75.9,75.8c1.3-9.5,6.2-18.6,14.4-24.8c8.2-6.3,18.2-8.7,27.7-7.4s18.6,6.2,24.8,14.4
		c6.2,8.2,8.7,18,7.4,27.5v0.4c-1.3,9.5-6.2,18.4-14.4,24.6c-8.2,6.2-18,8.7-27.5,7.4h-0.4c-9.5-1.3-18.4-6.2-24.6-14.4
		C77.1,95.3,74.7,85.2,75.9,75.8z"/>
	<path class="st1" d="M26.6,68.9h12.9v-5c0.4-0.1,0.8-0.1,1.2-0.3H41c5.5-1.4,10.5-4.5,14.4-8.7l4.3,2.5l6.5-11.2l-4.3-2.5
		c1.7-5.4,1.8-11.2,0.4-16.7v-0.3c-0.1-0.4-0.3-0.8-0.4-1.2l4.3-2.5l-6.5-11.2l-4.3,2.5c-2.1-2.2-4.5-4.2-7.2-5.8
		c-2.6-1.6-5.5-2.6-8.6-3.3V0H26.6v5c-0.4,0.1-0.9,0.3-1.3,0.3c-5.7,1.4-10.5,4.6-14.4,8.8l-4.3-2.5L0.1,22.8l4.3,2.5
		c-1.7,5.4-1.8,11.3-0.4,16.9c0.1,0.4,0.3,0.9,0.4,1.3L0,46.1l6.5,11.2l4.3-2.5c2.1,2.2,4.5,4.2,7.1,5.8s5.5,2.6,8.6,3.3v5H26.6z
		 M22.3,53.1c-5.1-3-8.6-7.8-10-13s-0.8-11.2,2.1-16.3c3-5.1,7.8-8.6,13-10s11.2-0.8,16.3,2.1c5.1,2.9,8.6,7.6,10,12.9V29
		c1.4,5.3,0.8,11.1-2.2,16.2c-2.9,5.1-7.6,8.6-12.9,10h-0.3C33.2,56.7,27.4,56,22.3,53.1z"/>
	<path class="st2" d="M171.5,39.8h-3.4l9.4,12.1c6.9,2.6,11.7,9.2,11.7,16.9v77.7c0,10-8.2,18-18,18h-19.9v21.2l-27.9-21.2h-68
		c-10,0-18-8.2-18-18V75.9H26.2v70.6c0,16.1,13,29.1,29.1,29.1h64.3l42.4,32.5v-32.4c0,0,9.4,0,9.5,0l0,0
		c15.8-0.3,28.5-13.3,28.5-29.1V68.9C200.1,53.1,187.4,40.2,171.5,39.8z"/>
</g>
</svg>
