<svg xmlns="http://www.w3.org/2000/svg" viewBox="0 0 171.26 28.92"><defs><style>.cls-1{fill:#1c325f;}.cls-2{fill:#199fda;}.cls-3,.cls-4{fill:#fff;}.cls-4{fill-rule:evenodd;}</style></defs><g id="Layer_2" data-name="Layer 2"><g id="Layer_1-2" data-name="Layer 1"><path class="cls-1" d="M134.65,11.9l-.62.86a3.63,3.63,0,0,0-2.09-.67,2.14,2.14,0,0,0-1.22.3,1,1,0,0,0-.44.86,1.15,1.15,0,0,0,.18.67,1.38,1.38,0,0,0,.6.44,8.85,8.85,0,0,0,1.24.37,4.07,4.07,0,0,1,1.89.91,2.1,2.1,0,0,1,.61,1.56,2.22,2.22,0,0,1-.92,1.89,3.58,3.58,0,0,1-2.25.68,4.69,4.69,0,0,1-3-1l.64-.86a4.47,4.47,0,0,0,1.09.55,3.88,3.88,0,0,0,1.23.18,2.14,2.14,0,0,0,1.31-.36,1.21,1.21,0,0,0,.48-1,1.27,1.27,0,0,0-.18-.71,1.38,1.38,0,0,0-.6-.44,9.62,9.62,0,0,0-1.24-.4,4.17,4.17,0,0,1-1.88-.88,2,2,0,0,1-.58-1.53,2,2,0,0,1,.82-1.69A3.55,3.55,0,0,1,131.9,11,4.39,4.39,0,0,1,134.65,11.9Z"/><path class="cls-1" d="M138.43,11.25h2.2V12.3h-2.2v5c0,.89.41,1.34,1.23,1.34a2.64,2.64,0,0,0,.81-.12l.21,1a3.62,3.62,0,0,1-1.28.21,2.15,2.15,0,0,1-2.35-2.35V12.3h-1.47v-.89l1.45-.16v-2l1.4-.49Z"/><path class="cls-1" d="M141.63,16.33V11.25H143v4.89a3.07,3.07,0,0,0,.5,1.83,1.76,1.76,0,0,0,1.54.69,2.2,2.2,0,0,0,1.82-.85,3.28,3.28,0,0,0,.69-2.13V11.25H149V17.7a14.56,14.56,0,0,0,.12,1.84h-1.32a10,10,0,0,1-.12-1.32h0a3.05,3.05,0,0,1-2.87,1.55,2.85,2.85,0,0,1-2.33-.95A3.82,3.82,0,0,1,141.63,16.33Z"/><path class="cls-1" d="M158.22,19.54h-1.29a8.7,8.7,0,0,1-.11-1.24h0a3.69,3.69,0,0,1-5.67.27,5,5,0,0,1-.94-3.15,5.25,5.25,0,0,1,.47-2.24A3.69,3.69,0,0,1,152,11.6a3.52,3.52,0,0,1,2-.58,3.62,3.62,0,0,1,2.7,1.07V8h1.39v9.7A16.64,16.64,0,0,0,158.22,19.54ZM156.72,16V13.36a3,3,0,0,0-2.51-1.22,2.28,2.28,0,0,0-1.9.91,3.83,3.83,0,0,0-.69,2.37,3.77,3.77,0,0,0,.67,2.37,2.19,2.19,0,0,0,1.84.87A2.43,2.43,0,0,0,156,17.9,2.66,2.66,0,0,0,156.72,16Z"/><path class="cls-1" d="M159.82,8.41c0-.59.3-.88.91-.88a.79.79,0,0,1,.9.88.79.79,0,0,1-.9.85A.9.9,0,0,1,160,9,.89.89,0,0,1,159.82,8.41Zm1.6,11.13H160V11.25h1.39Z"/><path class="cls-1" d="M171.26,15.37a5.1,5.1,0,0,1-.49,2.29,3.68,3.68,0,0,1-1.44,1.56,4.78,4.78,0,0,1-4.47,0,3.68,3.68,0,0,1-1.44-1.56,5,5,0,0,1-.49-2.28A4.52,4.52,0,0,1,164,12.2,4,4,0,0,1,167.09,11a4.47,4.47,0,0,1,2.26.54,3.62,3.62,0,0,1,1.42,1.53A5,5,0,0,1,171.26,15.37Zm-6.89,0a3.91,3.91,0,0,0,.67,2.39,2.41,2.41,0,0,0,2.05.9,2.44,2.44,0,0,0,2.07-.9,3.85,3.85,0,0,0,.68-2.39,3.7,3.7,0,0,0-.68-2.36,2.46,2.46,0,0,0-2.07-.88A2.4,2.4,0,0,0,165,13,3.76,3.76,0,0,0,164.37,15.37Z"/><path class="cls-1" d="M47.23,8.6A.91.91,0,0,1,49,8.6a.91.91,0,0,1-.21.62.91.91,0,0,1-.69.23.92.92,0,0,1-.7-.23A.91.91,0,0,1,47.23,8.6Zm1.6,11.16H47.44V11.44h1.39Z"/><path class="cls-1" d="M51.28,13.31a15,15,0,0,0-.12-1.87h1.33a9.73,9.73,0,0,1,.11,1.18h0a3,3,0,0,1,1.15-1,3.66,3.66,0,0,1,1.74-.38,2.88,2.88,0,0,1,2.33.9,3.4,3.4,0,0,1,.76,2.26v5.38H57.22v-5.1A2.62,2.62,0,0,0,56.73,13a1.84,1.84,0,0,0-1.58-.64,2.32,2.32,0,0,0-1.81.74A2.67,2.67,0,0,0,52.67,15v4.77H51.28Z"/><path class="cls-1" d="M62.37,11.44h2.2v1.07h-2.2v5c0,.89.4,1.34,1.22,1.34a3.07,3.07,0,0,0,.82-.11l.21,1a3.42,3.42,0,0,1-1.29.22,2.35,2.35,0,0,1-1.72-.62A2.28,2.28,0,0,1,61,17.64V12.51H59.51v-.9L61,11.44v-2l1.41-.49Z"/><path class="cls-1" d="M73.1,16.1H66.92a3.26,3.26,0,0,0,.77,2,2.53,2.53,0,0,0,2,.75A4.07,4.07,0,0,0,71,18.67a4.86,4.86,0,0,0,1.2-.61l.62.9a5.31,5.31,0,0,1-3.25,1,3.78,3.78,0,0,1-3-1.21,4.66,4.66,0,0,1-1.07-3.22A5.23,5.23,0,0,1,66,13.29a3.48,3.48,0,0,1,1.33-1.53,3.9,3.9,0,0,1,2.1-.54,3.35,3.35,0,0,1,2.76,1.17,4.8,4.8,0,0,1,1,3.12A4.27,4.27,0,0,1,73.1,16.1ZM71.77,15a3.22,3.22,0,0,0-.63-2,2.13,2.13,0,0,0-1.75-.75,2.23,2.23,0,0,0-1.8.77,3.25,3.25,0,0,0-.68,2Z"/><path class="cls-1" d="M75,13.31a15,15,0,0,0-.11-1.87h1.32c.06.38.09.82.12,1.33h0a2.62,2.62,0,0,1,2.61-1.55,2.92,2.92,0,0,1,.48,0l-.09,1.19a2.67,2.67,0,0,0-.5,0,2.18,2.18,0,0,0-1.83.81,3.18,3.18,0,0,0-.64,2.07v4.46H75Z"/><path class="cls-1" d="M80.05,17.49a2.33,2.33,0,0,1,1.17-2.25,7.65,7.65,0,0,1,3.52-.63l.87,0v-.47a1.77,1.77,0,0,0-.51-1.39,2.23,2.23,0,0,0-1.55-.46,4.77,4.77,0,0,0-2.5.7l-.49-.93a5.72,5.72,0,0,1,3.07-.86,3.49,3.49,0,0,1,2.56.81A3.41,3.41,0,0,1,87,14.52v3.39a14.67,14.67,0,0,0,.11,1.85H85.84a7.36,7.36,0,0,1-.12-1.13h0a2.86,2.86,0,0,1-1.15,1,4,4,0,0,1-1.79.35,2.84,2.84,0,0,1-1.94-.65A2.34,2.34,0,0,1,80.05,17.49Zm5.56-.8V15.61l-.74,0a9.13,9.13,0,0,0-2,.17,2,2,0,0,0-1.08.55,1.61,1.61,0,0,0-.35,1.1,1.39,1.39,0,0,0,.43,1.1,1.7,1.7,0,0,0,1.17.38,2.69,2.69,0,0,0,1.36-.33,2.39,2.39,0,0,0,.86-.84A2,2,0,0,0,85.61,16.69Z"/><path class="cls-1" d="M92.5,11.22a4.89,4.89,0,0,1,1.49.23,4.37,4.37,0,0,1,1.27.66l-.56,1a3.57,3.57,0,0,0-2.2-.7,2.44,2.44,0,0,0-2,.87,3.72,3.72,0,0,0-.68,2.34,3.75,3.75,0,0,0,.68,2.33,2.4,2.4,0,0,0,2,.89,4.14,4.14,0,0,0,2.24-.7l.51,1a4.74,4.74,0,0,1-2.85.9,3.93,3.93,0,0,1-2.3-.63,3.58,3.58,0,0,1-1.3-1.63,5.78,5.78,0,0,1-.4-2.14,4.52,4.52,0,0,1,1.1-3.18A3.87,3.87,0,0,1,92.5,11.22Z"/><path class="cls-1" d="M99.21,11.44h2.21v1.07H99.21v5c0,.89.41,1.34,1.23,1.34a3,3,0,0,0,.81-.11l.21,1a3.42,3.42,0,0,1-1.29.22,2.35,2.35,0,0,1-1.72-.62,2.28,2.28,0,0,1-.63-1.73V12.51H96.35v-.9l1.46-.17v-2l1.4-.49Z"/><path class="cls-1" d="M103.15,8.6a.91.91,0,0,1,1.81,0,.91.91,0,0,1-.21.62.91.91,0,0,1-.69.23.92.92,0,0,1-.7-.23A.91.91,0,0,1,103.15,8.6Zm1.6,11.16h-1.39V11.44h1.39Z"/><path class="cls-1" d="M114.77,15.58a5.1,5.1,0,0,1-.49,2.29,3.68,3.68,0,0,1-1.44,1.56,4.37,4.37,0,0,1-2.25.56,4.23,4.23,0,0,1-2.23-.57,3.56,3.56,0,0,1-1.44-1.56,5,5,0,0,1-.49-2.28,4.5,4.5,0,0,1,1.09-3.18,4,4,0,0,1,3.07-1.18,4.49,4.49,0,0,1,2.27.54,3.62,3.62,0,0,1,1.42,1.53A5,5,0,0,1,114.77,15.58Zm-6.9,0a3.89,3.89,0,0,0,.67,2.39,2.42,2.42,0,0,0,2,.91,2.46,2.46,0,0,0,2.08-.91,3.83,3.83,0,0,0,.68-2.39,3.75,3.75,0,0,0-.68-2.37,2.47,2.47,0,0,0-2.08-.88,2.4,2.4,0,0,0-2,.88A3.81,3.81,0,0,0,107.87,15.58Z"/><path class="cls-1" d="M116.1,13.31a15,15,0,0,0-.12-1.87h1.32a7.85,7.85,0,0,1,.12,1.18h0a3,3,0,0,1,1.15-1,3.66,3.66,0,0,1,1.74-.38,2.88,2.88,0,0,1,2.33.9,3.4,3.4,0,0,1,.76,2.26v5.38H122v-5.1a2.62,2.62,0,0,0-.49-1.64,1.85,1.85,0,0,0-1.58-.64,2.32,2.32,0,0,0-1.81.74,2.67,2.67,0,0,0-.68,1.87v4.77H116.1Z"/><path class="cls-2" d="M17.2,3.15A7.26,7.26,0,0,1,22.44.9a7.34,7.34,0,0,1,6.37,3.78,8.83,8.83,0,0,1,3.6-.76,9,9,0,0,1,0,18,9.19,9.19,0,0,1-1.75-.17,6.53,6.53,0,0,1-8.53,2.68,7.44,7.44,0,0,1-13.82-.34,6.55,6.55,0,0,1-1.41.15,7,7,0,0,1-3.45-13A7.84,7.84,0,0,1,2.79,8,8,8,0,0,1,17.2,3.15Z"/><path class="cls-3" d="M6,15c0,.07,0,.08,0,.09l.24.15a2.54,2.54,0,0,0,1.23.28c.85,0,1.38-.45,1.38-1.17v0c0-.67-.6-.91-1.15-1.09l-.08,0c-.42-.14-.78-.26-.78-.53v0c0-.23.21-.41.54-.41a2.37,2.37,0,0,1,1.08.28s.08.05.11,0,.16-.42.17-.46a.08.08,0,0,0,0-.1,2.44,2.44,0,0,0-1.21-.32H7.4a1.18,1.18,0,0,0-1.31,1.14h0c0,.71.59.94,1.15,1.1l.09,0c.41.12.76.23.76.52h0c0,.26-.23.46-.59.46a2,2,0,0,1-1.1-.32l-.14-.08a.07.07,0,0,0-.11,0Z"/><path class="cls-3" d="M18.39,15c0,.07,0,.08,0,.09s.16.1.24.15a2.54,2.54,0,0,0,1.23.28c.85,0,1.38-.45,1.38-1.17v0c0-.67-.6-.91-1.15-1.09l-.08,0c-.42-.14-.78-.26-.78-.53v0c0-.23.21-.41.54-.41a2.37,2.37,0,0,1,1.08.28s.08.05.11,0,.16-.42.17-.46a.08.08,0,0,0,0-.1,2.44,2.44,0,0,0-1.21-.32h-.09a1.19,1.19,0,0,0-1.32,1.14h0c0,.71.6.94,1.16,1.1l.09,0c.41.12.76.23.76.52h0c0,.26-.23.46-.6.46a2,2,0,0,1-1.09-.32l-.14-.08a.07.07,0,0,0-.11,0Z"/><path class="cls-3" d="M27.57,12.82a1.56,1.56,0,0,0-.86-1,2,2,0,0,0-1.52,0,1.49,1.49,0,0,0-.54.41,1.53,1.53,0,0,0-.32.62,2.63,2.63,0,0,0-.11.76,2.68,2.68,0,0,0,.11.76,1.49,1.49,0,0,0,.32.61,1.39,1.39,0,0,0,.54.41,2,2,0,0,0,1.52,0,1.46,1.46,0,0,0,.54-.41,1.62,1.62,0,0,0,.32-.61,2.68,2.68,0,0,0,.11-.76,2.63,2.63,0,0,0-.11-.76m-.7.76a1.75,1.75,0,0,1-.23,1,.76.76,0,0,1-.69.34.75.75,0,0,1-.69-.34,1.84,1.84,0,0,1-.22-1,1.84,1.84,0,0,1,.22-1,.77.77,0,0,1,.69-.33.78.78,0,0,1,.69.33,1.75,1.75,0,0,1,.23,1"/><path class="cls-4" d="M33.38,14.77a.07.07,0,0,0-.09,0,1.59,1.59,0,0,1-.33.1,2.24,2.24,0,0,1-.38,0,1.06,1.06,0,0,1-.81-.3,1.34,1.34,0,0,1-.31-1,1.51,1.51,0,0,1,.27-.93.94.94,0,0,1,.79-.34,2.52,2.52,0,0,1,.75.1s0,0,.08-.05.11-.29.17-.48a.06.06,0,0,0,0-.08,2.12,2.12,0,0,0-.47-.12,4.09,4.09,0,0,0-.53,0,1.77,1.77,0,0,0-.79.16,1.61,1.61,0,0,0-.57.41,1.84,1.84,0,0,0-.35.61,2.68,2.68,0,0,0-.11.76A2,2,0,0,0,31.13,15a1.78,1.78,0,0,0,1.4.53,2.79,2.79,0,0,0,1-.18.06.06,0,0,0,0-.08Z"/><path class="cls-4" d="M37,12.68a1.71,1.71,0,0,0-.3-.56,1.47,1.47,0,0,0-.46-.34,1.62,1.62,0,0,0-.68-.14,1.92,1.92,0,0,0-.79.15,1.59,1.59,0,0,0-.56.42,1.92,1.92,0,0,0-.32.62,2.76,2.76,0,0,0-.11.77,2.63,2.63,0,0,0,.11.76,1.6,1.6,0,0,0,.35.61,1.58,1.58,0,0,0,.6.4,3,3,0,0,0,2.08-.1s0,0,0-.11l-.16-.44a.06.06,0,0,0-.09,0,2.23,2.23,0,0,1-1,.17,1.14,1.14,0,0,1-.82-.28,1.12,1.12,0,0,1-.28-.79H37a.06.06,0,0,0,.06-.07A2.29,2.29,0,0,0,37,12.68Zm-2.38.5a1.68,1.68,0,0,1,.19-.56.79.79,0,0,1,.69-.35.76.76,0,0,1,.67.35,1.19,1.19,0,0,1,.16.56Z"/><path class="cls-4" d="M17.82,12.68a1.71,1.71,0,0,0-.3-.56,1.47,1.47,0,0,0-.46-.34,1.67,1.67,0,0,0-.69-.14,2,2,0,0,0-.79.15,1.65,1.65,0,0,0-.55.42,1.92,1.92,0,0,0-.32.62,2.76,2.76,0,0,0-.11.77,2.63,2.63,0,0,0,.11.76,1.48,1.48,0,0,0,.35.61,1.58,1.58,0,0,0,.6.4,2.48,2.48,0,0,0,.87.14,2.54,2.54,0,0,0,1.21-.24s.05,0,0-.11l-.16-.44a.06.06,0,0,0-.09,0,2.23,2.23,0,0,1-1,.17,1.14,1.14,0,0,1-.82-.28,1.08,1.08,0,0,1-.28-.79h2.39a.07.07,0,0,0,.07-.07A2.29,2.29,0,0,0,17.82,12.68Zm-2.38.5a1.48,1.48,0,0,1,.19-.56.78.78,0,0,1,.69-.35.76.76,0,0,1,.67.35,1.19,1.19,0,0,1,.16.56Z"/><path class="cls-3" d="M11.22,13.07h-.38a2.32,2.32,0,0,0-.59.07,1.45,1.45,0,0,0-.5.24,1.2,1.2,0,0,0-.35.39,1.23,1.23,0,0,0-.12.55,1.15,1.15,0,0,0,.11.55.86.86,0,0,0,.31.37,1.38,1.38,0,0,0,.49.22,3,3,0,0,0,.63.06,4.4,4.4,0,0,0,.73-.06l.6-.12.17,0c.06,0,0-.08,0-.08V13A1.37,1.37,0,0,0,12,12a1.62,1.62,0,0,0-1.1-.33,4.48,4.48,0,0,0-.64.06,2.32,2.32,0,0,0-.74.27.08.08,0,0,0,0,.1l.17.45a.08.08,0,0,0,.12,0,2.4,2.4,0,0,1,1-.24,1,1,0,0,1,.59.15.65.65,0,0,1,.2.57v.11Zm-1,1.68a.6.6,0,0,1-.14-.14.65.65,0,0,1-.07-.31.51.51,0,0,1,.22-.46,1,1,0,0,1,.69-.18,5.66,5.66,0,0,1,.65.06v1.09h0a5.25,5.25,0,0,1-.65.08A1.08,1.08,0,0,1,10.26,14.75Z"/><path class="cls-4" d="M30.53,11.84a.07.07,0,0,0,0-.09,1.84,1.84,0,0,0-.4-.07,1.16,1.16,0,0,0-.62.1,1.24,1.24,0,0,0-.41.3v-.29a.08.08,0,0,0-.07-.08h-.61a.08.08,0,0,0-.07.08v3.57a.07.07,0,0,0,.07.07H29a.08.08,0,0,0,.08-.07V13.57a1.87,1.87,0,0,1,.08-.62.9.9,0,0,1,.21-.36.66.66,0,0,1,.29-.17,1,1,0,0,1,.32-.05,1.5,1.5,0,0,1,.27,0s.07,0,.08-.06Z"/><path class="cls-4" d="M24.63,10.18l-.24-.06-.33,0a1.37,1.37,0,0,0-1,.36,2,2,0,0,0-.48,1.09l0,.16H22a.08.08,0,0,0-.08.07l-.09.5c0,.05,0,.08.07.08h.53l-.53,3a3.84,3.84,0,0,1-.15.59,1.2,1.2,0,0,1-.16.34.46.46,0,0,1-.22.17.86.86,0,0,1-.28,0l-.2,0-.13,0a.06.06,0,0,0-.08,0L20.5,17a.07.07,0,0,0,0,.09l.22.07a1.46,1.46,0,0,0,.35,0,1.68,1.68,0,0,0,.58-.09,1.14,1.14,0,0,0,.45-.31,1.66,1.66,0,0,0,.31-.54,5.07,5.07,0,0,0,.21-.8l.54-3.05H24a.09.09,0,0,0,.08-.07l.09-.5s0-.08-.08-.08h-.77a3.84,3.84,0,0,1,.13-.54.69.69,0,0,1,.17-.25.44.44,0,0,1,.2-.13.93.93,0,0,1,.25,0l.2,0,.12,0c.08,0,.09,0,.11,0l.18-.51S24.64,10.19,24.63,10.18Z"/><rect class="cls-3" x="13.15" y="10.18" width="0.77" height="5.26" rx="0.07"/></g></g></svg>