<?xml version="1.0" encoding="utf-8"?>
<!-- Generator: Adobe Illustrator 19.2.1, SVG Export Plug-In . SVG Version: 6.00 Build 0)  -->
<svg version="1.1" id="Layer_1" xmlns="http://www.w3.org/2000/svg" xmlns:xlink="http://www.w3.org/1999/xlink" x="0px" y="0px"
	 viewBox="0 0 200 200" style="enable-background:new 0 0 200 200;" xml:space="preserve">
<style type="text/css">
	.st0{display:none;}
	.st1{display:inline;}
	.st2{enable-background:new    ;}
	.st3{fill:#F3F3F3;}
	.st4{fill:#F9F9F9;}
	.st5{fill:#CCCCCC;}
	.st6{opacity:0.9;fill:#FFFFFF;enable-background:new    ;}
	.st7{font-family:'ArialMT';}
	.st8{font-size:28.3121px;}
	.st9{opacity:0.9;enable-background:new    ;}
	.st10{fill:#FFFFFF;}
	.st11{fill:#6F6F6F;}
	.st12{fill:#C2C0C0;}
	.st13{fill:#9A9898;}
	.st14{fill:#F5F5F5;}
	.st15{fill:#D5D5D5;}
	.st16{fill:#808080;}
	.st17{fill:#E5E5E5;}
	.st18{fill:#B5B5B5;}
</style>
<g id="Layer_1_1_" class="st0">
	
		<text transform="matrix(1 0 0 1 1209.5725 -83.1689)" style="display:inline;fill:#F3F3F3; font-family:'FontAwesome'; font-size:63.6279px; letter-spacing:4;"></text>
	<g class="st1">
		<g>
			<g>
				<rect x="-2.2" class="st4" width="200" height="200"/>
				<path class="st5" d="M194.8,3v194H0.8V3H194.8 M197.8,0h-200v200h200V0L197.8,0z"/>
			</g>
			<g>
				<path class="st5" d="M22.8,162.4c0,0,0.9-82.7,39.8-82.7s42.7,62.3,42.7,62.3s10.3-31.4,35.2-31.4c24.8,0,32.3,51.8,32.3,51.8
					H22.8z"/>
				<circle class="st5" cx="131.1" cy="55.4" r="17.8"/>
			</g>
			<text transform="matrix(0.7071 -0.7071 0.7071 0.7071 50.1369 158.3437)" class="st6 st7 st8">Placeholder</text>
		</g>
		<g>
			<g>
				<rect x="568.5" class="st4" width="200" height="200"/>
				<path class="st5" d="M765.5,3v194h-194V3H765.5 M768.5,0h-200v200h200V0L768.5,0z"/>
			</g>
			<g>
				<g>
					<path class="st5" d="M727.1,56.8c1.6,1.6,2.9,3.7,4,6.4s1.7,5.1,1.7,7.4V167c0,2.2-0.8,4.1-2.3,5.7c-1.6,1.6-3.5,2.3-5.7,2.3
						H612.3c-2.2,0-4.1-0.8-5.7-2.3c-1.6-1.6-2.3-3.5-2.3-5.7V33c0-2.2,0.8-4.1,2.3-5.7c1.6-1.6,3.5-2.3,5.7-2.3h75
						c2.2,0,4.7,0.6,7.4,1.7s4.8,2.5,6.4,4L727.1,56.8z M722.1,164.3V78.6h-34.8c-2.2,0-4.1-0.8-5.7-2.3c-1.6-1.6-2.3-3.5-2.3-5.7
						V35.7H615v128.6H722.1z M689.9,36.4v31.5h31.5c-0.6-1.6-1.2-2.8-1.8-3.4l-26.2-26.2C692.7,37.6,691.5,36.9,689.9,36.4z"/>
				</g>
			</g>
			<text transform="matrix(1 0 0 1 631.1561 135.8353)" class="st5" style="font-family:'Arial-BoldMT'; font-size:64px;">ds</text>
			<text transform="matrix(0.7071 -0.7071 0.7071 0.7071 623.7575 155.851)" class="st6 st7 st8">Data Sheet</text>
		</g>
		<g>
			<g>
				<rect x="851.5" y="2" class="st4" width="197" height="197"/>
				<path class="st5" d="M1047.5,3v194h-194V3H1047.5 M1050.5,0h-200v200h200V0L1050.5,0z"/>
			</g>
			<g>
				<g>
					<path class="st5" d="M1009.1,56.8c1.6,1.6,2.9,3.7,4,6.4s1.7,5.1,1.7,7.4V167c0,2.2-0.8,4.1-2.3,5.7c-1.6,1.6-3.5,2.3-5.7,2.3
						H894.3c-2.2,0-4.1-0.8-5.7-2.3c-1.6-1.6-2.3-3.5-2.3-5.7V33c0-2.2,0.8-4.1,2.3-5.7c1.6-1.6,3.5-2.3,5.7-2.3h75
						c2.2,0,4.7,0.6,7.4,1.7s4.8,2.5,6.4,4L1009.1,56.8z M1004.1,164.3V78.6h-34.8c-2.2,0-4.1-0.8-5.7-2.3c-1.6-1.6-2.3-3.5-2.3-5.7
						V35.7H897v128.6H1004.1z M971.9,36.4v31.5h31.5c-0.6-1.6-1.2-2.8-1.8-3.4l-26.2-26.2C974.7,37.6,973.5,36.9,971.9,36.4z"/>
				</g>
			</g>
			<text transform="matrix(1 0 0 1 914.9064 135.4064)" class="st5" style="font-family:'Arial-BoldMT'; font-size:64px;">cs</text>
			<text transform="matrix(0.7071 -0.7071 0.7071 0.7071 904.0961 157.0844)" class="st6 st7 st8">Case Study</text>
		</g>
		<g>
			<g>
				<rect x="1128" class="st4" width="200" height="200"/>
				<path class="st5" d="M1325,3v194h-194V3H1325 M1328,0h-200v200h200V0L1328,0z"/>
			</g>
			<rect x="1128" y="47.8" class="st5" width="200" height="104.5"/>
			<g>
				<path class="st3" d="M1252.2,101.1l-47.2,26.2c-0.5,0.3-1,0.3-1.4,0.1s-0.6-0.7-0.6-1.3V73.9c0-0.6,0.2-1,0.6-1.3
					c0.4-0.2,0.9-0.2,1.4,0.1l47.2,26.2c0.5,0.3,0.8,0.7,0.8,1.1C1253,100.4,1252.7,100.8,1252.2,101.1z"/>
			</g>
			<text transform="matrix(0.7071 -0.7071 0.7071 0.7071 1207.7399 130.9408)" class="st6 st7 st8">Video</text>
		</g>
		<g>
			<g>
				<rect x="292.5" class="st4" width="200" height="200"/>
				<path class="st5" d="M489.5,3v194h-194V3H489.5 M492.5,0h-200v200h200V0L492.5,0z"/>
			</g>
			
				<text transform="matrix(1 0 0 1 308.2281 135.4064)" class="st5" style="font-family:'Arial-BoldMT'; font-size:64px; letter-spacing:4;">www</text>
			<text transform="matrix(0.7071 -0.7071 0.7071 0.7071 351.1007 152.0795)" class="st6 st7 st8">Web Page</text>
			<g>
				<rect x="292.5" class="st11" width="200" height="35.5"/>
				<circle class="st3" cx="309.8" cy="17.8" r="6"/>
				<circle class="st12" cx="329.8" cy="17.8" r="6"/>
				<circle class="st13" cx="349.8" cy="17.8" r="6"/>
			</g>
		</g>
	</g>
	<g class="st1">
		
			<text transform="matrix(1 0 0 1 447.7151 -139.7134)" class="st5" style="font-family:'FontAwesome'; font-size:150px; letter-spacing:15;"></text>
	</g>
</g>
<rect class="st14" width="200" height="200"/>
<path class="st15" d="M197,3v194H3V3H197 M200,0H0v200h200V0L200,0z"/>
<rect class="st16" width="200" height="35.5"/>
<circle class="st17" cx="17.3" cy="17.8" r="6"/>
<circle class="st15" cx="37.3" cy="17.8" r="6"/>
<circle class="st18" cx="57.3" cy="17.8" r="6"/>
<rect x="24" y="50" class="st15" width="48" height="48"/>
<rect x="24" y="135" class="st15" width="150" height="3"/>
<rect x="24" y="125" class="st15" width="150" height="3"/>
<rect x="24" y="115" class="st15" width="150" height="3"/>
<rect x="24" y="105" class="st15" width="150" height="3"/>
<rect x="24" y="145" class="st15" width="150" height="3"/>
<rect x="24" y="155" class="st15" width="150" height="3"/>
<rect x="24" y="165" class="st15" width="150" height="3"/>
<rect x="24" y="175" class="st15" width="150" height="3"/>
<rect x="86.2" y="50" class="st15" width="87.8" height="8"/>
<rect x="86.2" y="65" class="st15" width="87.8" height="3"/>
<rect x="86.2" y="75" class="st15" width="87.8" height="3"/>
<rect x="86.2" y="85" class="st15" width="87.8" height="3"/>
<rect x="86.2" y="95" class="st15" width="87.8" height="3"/>
</svg>
