<?xml version="1.0" encoding="utf-8"?>
<!-- Generator: Adobe Illustrator 20.1.0, SVG Export Plug-In . SVG Version: 6.00 Build 0)  -->
<svg version="1.1" id="Layer_1" xmlns="http://www.w3.org/2000/svg" xmlns:xlink="http://www.w3.org/1999/xlink" x="0px" y="0px"
	 viewBox="0 0 193.8 256" style="enable-background:new 0 0 193.8 256;" xml:space="preserve">
<style type="text/css">
	.st0{fill:#972375;}
	.st1{fill:#632772;}
	.st2{fill:#FFFFFF;}
</style>
<title>Artboard 1</title>
<path class="st0" d="M102.6,243.6l21.4-19.8c38-35.3,59.7-84.9,59.8-136.8V33.7c0-3.8-2.6-7.1-6.3-8.1l-42.4-10.8
	c-12.4-3.2-25.2-4.8-38-4.8v235.8C99.1,245.8,101.1,245,102.6,243.6z"/>
<path class="st0" d="M177.4,25.6l-42.4-10.8c-12.4-3.2-25.2-4.8-38-4.8v235.8c2,0,4-0.8,5.5-2.2l21.4-19.8
	c38-35.3,59.7-84.9,59.8-136.8V33.7C183.7,29.9,181.1,26.6,177.4,25.6z"/>
<path class="st1" d="M179.9,15.8L137.6,5.1c-26.7-6.8-54.6-6.8-81.3,0L13.9,15.8C5.7,17.9,0,25.3,0,33.7v53.3
	c0.1,54.7,22.9,107,63,144.2l21.4,19.8l0,0c3.4,3.2,7.9,4.9,12.5,4.9h0.1c4.6,0,9-1.8,12.4-4.9l21.4-19.8
	c40.1-37.3,62.9-89.5,63-144.2V33.7C193.8,25.3,188.1,17.9,179.9,15.8z M183.7,87.1C183.7,139,162,188.5,124,223.8l-21.4,19.8
	c-1.5,1.4-3.5,2.2-5.5,2.2V10.1c12.8,0,25.6,1.6,38,4.8l42.4,10.8c3.7,0.9,6.3,4.3,6.3,8.1V87.1z"/>
<path class="st2" d="M142.4,103.3c-1.2-5.4-3.3-10.5-6.2-15.1l5.5-5.5l-14.1-14.1l-5.5,5.4c-4.6-3-9.7-5.1-15.1-6.2v-7.7H87.1v7.7
	c-5.4,1.2-10.5,3.3-15.1,6.2l-5.5-5.4L52.5,82.8l5.5,5.5c-3,4.6-5.1,9.7-6.2,15.1H44v19.9h7.7c1.2,5.4,3.3,10.5,6.2,15.1l-5.5,5.5
	l14.1,14.1l5.5-5.5c4.6,3,9.7,5.1,15.1,6.2v7.7H107v-7.7c5.4-1.2,10.5-3.3,15.1-6.2l5.5,5.5l14.1-14.1l-5.5-5.5
	c3-4.6,5.1-9.7,6.2-15.1h7.7v-19.9L142.4,103.3z M130.2,113.4c-0.1,18.2-14.8,32.9-33,33h-0.3c-18.3,0-33.2-14.8-33.2-33.2
	s14.8-33.2,33.2-33.2h0.2c18.3,0,33.1,14.7,33.2,33L130.2,113.4z"/>
</svg>
