<?xml version="1.0" encoding="utf-8"?>
<!-- Generator: Adobe Illustrator 21.0.2, SVG Export Plug-In . SVG Version: 6.00 Build 0)  -->
<svg version="1.1" id="Layer_1" xmlns="http://www.w3.org/2000/svg" xmlns:xlink="http://www.w3.org/1999/xlink" x="0px" y="0px"
	 viewBox="0 0 32 32" style="enable-background:new 0 0 32 32;" xml:space="preserve">
<style type="text/css">
	.st0{fill:#1C94D2;}
	.st1{fill:#81C141;}
</style>
<path class="st0" d="M12,14.6l-1.5-0.2L10,18.3l1.5,0.2c0.1,1,0.4,2.1,0.8,3.1l-1.2,0.9l2.4,3.1l1.2-0.9c0.8,0.7,1.8,1.2,2.8,1.6
	l-0.2,1.5l3.8,0.5l0.2-1.5c1-0.1,2.1-0.4,3.1-0.8l0.9,1.2l3.1-2.4l-0.9-1.2c0.7-0.8,1.2-1.8,1.6-2.8l1.5,0.2l0.5-3.8l-1.5-0.2
	c-0.1-1-0.4-2.1-0.8-3.1l1.2-0.9l-2.4-3.1l-1.2,0.9c-0.8-0.7-1.8-1.2-2.8-1.6l0.2-1.5l-3.8-0.5l-0.2,1.5c-1,0.1-2.1,0.4-3.1,0.8
	l-0.9-1.2l-3.1,2.4l0.9,1.2C12.9,12.7,12.3,13.6,12,14.6z M14.1,16.9c0.2-1.6,1.1-3.2,2.5-4.3c1.4-1.1,3.1-1.5,4.8-1.3
	c1.6,0.2,3.2,1.1,4.3,2.5c1.1,1.4,1.5,3.1,1.3,4.7l0,0.1c-0.2,1.6-1.1,3.2-2.5,4.3c-1.4,1.1-3.1,1.5-4.7,1.3l-0.1,0
	c-1.6-0.2-3.2-1.1-4.3-2.5C14.3,20.2,13.9,18.5,14.1,16.9z"/>
<path class="st1" d="M5.6,15.7h2.2v-0.9c0.1,0,0.1,0,0.2-0.1l0,0c1-0.3,1.8-0.8,2.5-1.5l0.8,0.4l1.1-1.9l-0.8-0.4
	c0.3-0.9,0.3-1.9,0.1-2.9l0,0c0-0.1,0-0.1-0.1-0.2l0.8-0.4l-1.1-1.9l-0.8,0.4c-0.4-0.4-0.8-0.7-1.2-1C8.8,5,8.3,4.8,7.8,4.7V3.8H5.6
	v0.9c-0.1,0-0.2,0-0.2,0.1C4.4,5,3.5,5.5,2.9,6.2L2.1,5.8L1,7.7l0.8,0.4c-0.3,0.9-0.3,1.9-0.1,2.9c0,0.1,0,0.2,0.1,0.2L1,11.7
	l1.1,1.9l0.8-0.4c0.4,0.4,0.8,0.7,1.2,1c0.5,0.3,1,0.5,1.5,0.6V15.7z M4.8,12.9c-0.9-0.5-1.5-1.3-1.7-2.3C2.9,9.8,3,8.8,3.5,7.9
	C4,7,4.8,6.4,5.7,6.1C6.7,5.9,7.7,6,8.6,6.5C9.4,7,10,7.8,10.3,8.8l0,0c0.2,0.9,0.1,1.9-0.4,2.8c-0.5,0.9-1.3,1.5-2.2,1.7l0,0
	C6.7,13.6,5.7,13.5,4.8,12.9z"/>
</svg>
