<svg xmlns="http://www.w3.org/2000/svg" width="844" height="81" fill="#cdebfa" viewBox="0 0 8440 810"><linearGradient id="a" x1="4220" x2="4220" y1="810" gradientUnits="userSpaceOnUse"><stop offset="0" stop-color="#cde6fb"/><stop offset=".2" stop-color="#bcdefa"/><stop offset=".5" stop-color="#91c7f7"/><stop offset="1" stop-color="#4fa6f2"/></linearGradient><path fill="url(#a)" d="M0 0h8440v810H0z"/><g fill="#fff"><path d="M1553 793a163 163 0 0 0-128-29c-18 4-34 10-48 18-75-116-215-180-358-151-27 6-53 14-77 26-52-17-108-22-164-10-36 7-70 21-100 39-17-76-80-131-154-141a177 177 0 0 0-163-130l-3-22C332 263 206 180 76 206 8 220-47 261-80 317c-31-40-84-62-137-51-34 7-62 26-82 51a159.8 159.8 0 0 0-211 123c-15-2-30-1-45 2-68 14-115 71-120 137a232.7 232.7 0 0 0-441 141c9 43 29 81 57 111a285.9 285.9 0 0 0-282-105 281 281 0 0 0-204 167c-23-6-49-8-74-2-11 2-21 5-31 9l3367 65c14-39-85-135-164-172z" opacity=".2"/><path d="M3399 924a140.2 140.2 0 0 0-230-86 64.8 64.8 0 0 0-79-30 112 112 0 0 0-98-59c-11 0-22 2-32 5 3-13 5-27 5-42 0-107-87-194-194-194-28 0-55 6-79 17a84 84 0 0 0-78-54c-26 0-50 12-65 32a260 260 0 0 0-175-68c-71 0-136 29-182 76 4-12 7-25 7-38 0-61-50-111-111-111-7 0-13 1-20 2-24-13-52-20-82-20-9-64-59-116-122-119a314.7 314.7 0 0 0-599 105c-9 0-19 1-28 3a141 141 0 0 0-165-80c-34 9-61 30-79 56a65.2 65.2 0 0 0-84-9 111.3 111.3 0 0 0-140-19c-1-14-3-28-6-42a193.8 193.8 0 0 0-238-136c-27 7-52 20-72 37-20-27-55-41-89-32-25 7-45 25-55 47-56-29-122-38-187-21C53 163-2 207-35 264c1-13 0-26-3-39a111 111 0 0 0-136-78c-6 2-13 4-18 7-27-6-56-6-84 2-26-62-92-100-156-82-38 10-67 38-80 72a120.2 120.2 0 0 0-138 149c10 37 36 65 69 79a111.6 111.6 0 0 0 102 127c-48 26-75 82-60 137 7 25 21 46 39 61-5 6-10 13-13 20-7 1-15 2-22 4-69 19-110 89-91 158 7 27 22 49 42 66-4 4-7 9-10 14-11-10-27-14-42-10a47 47 0 0 0-33 57c6 23 29 37 52 34 0 10 1 19 3 29-8 14-11 32-6 49a64 64 0 0 0 73 47c33 21 75 28 116 17l2002 123 1828-383zm833 260a140.2 140.2 0 0 1 230-86 64.8 64.8 0 0 1 79-30c19-35 56-59 98-59 11 0 22 2 32 5-3-13-5-27-5-42 0-107 87-194 194-194 28 0 55 6 79 17a84 84 0 0 1 78-54c26 0 50 12 65 32a260 260 0 0 1 175-68c71 0 136 29 182 76-4-12-7-25-7-38 0-61 50-111 111-111 7 0 13 1 20 2 24-13 52-20 82-20 9-64 59-116 122-120a314.7 314.7 0 0 1 367-172 313 313 0 0 1 231 277c9 0 19 1 28 3 28-63 97-98 165-80 34 9 61 30 79 56 22-11 107-11 164 34s126 147 115 256c56-29-815 696-857 696l-1827-380zm7607-260a140.2 140.2 0 0 0-230-86 64.8 64.8 0 0 0-79-30 112 112 0 0 0-98-59c-11 0-22 2-32 5 3-13 5-27 5-42 0-107-87-194-194-194-28 0-55 6-79 17a84 84 0 0 0-78-54c-26 0-50 12-65 32a260 260 0 0 0-175-68c-71 0-136 29-182 76 4-12 7-25 7-38 0-61-50-111-111-111-7 0-13 1-20 2-24-13-52-20-82-20-9-64-59-116-122-119a314.7 314.7 0 0 0-599 105c-9 0-19 1-28 3a141 141 0 0 0-165-80c-34 9-61 30-79 56a65.2 65.2 0 0 0-84-9 111.3 111.3 0 0 0-140-19c-1-14-3-28-6-42a194.4 194.4 0 0 0-310-100c-20-27-55-41-89-32-25 7-45 25-55 47-56-29-122-38-187-21-69 19-124 63-157 120 1-13 0-26-3-39a111 111 0 0 0-136-78c-6 2-13 4-18 7-27-6-56-6-84 2-26-62-92-100-156-82-38 10-67 38-80 72a120.2 120.2 0 0 0-138 149c10 37 36 65 69 79a111.6 111.6 0 0 0 102 127c-48 26-75 82-60 137 7 25 21 46 39 61-5 6-10 13-13 20-7 1-15 2-22 4-69 19-110 89-91 158 7 27 22 49 42 66-4 4-7 9-10 14-11-10-27-14-42-10a47 47 0 0 0-33 57c6 23 29 37 52 34 0 10 1 19 3 29-8 14-11 32-6 49a64 64 0 0 0 73 47c33 21 75 28 116 17l2002 123 1828-382z" opacity=".2"/><path d="M9993 793a163 163 0 0 0-128-29c-18 4-34 10-48 18-75-116-215-180-358-151-27 6-53 14-77 26a309.4 309.4 0 0 0-263 28c-17-76-80-131-154-141a177 177 0 0 0-163-130l-3-22a237.5 237.5 0 0 0-281-186 242 242 0 0 0-157 111c-31-40-84-62-137-51-34 7-62 26-82 51-26-9-55-12-85-6-67 13-116 66-127 129-15-2-30-1-45 2-68 14-115 71-120 137a232.7 232.7 0 0 0-441 141c9 43 29 81 57 111a285.9 285.9 0 0 0-282-105 281 281 0 0 0-204 167c-23-6-49-8-74-2-11 2-21 5-31 9l3367 65c14-39-85-135-164-172z" opacity=".2"/></g><g opacity=".2"><path d="M1562 803c19 4 36 11 52 21a367.2 367.2 0 0 1 386-155c29 6 57 16 82 29 55-18 115-22 175-8 39 9 74 24 106 44 20-82 88-139 167-148 23-80 96-134 177-137a255.2 255.2 0 0 1 309-217c73 16 131 62 166 121 34-43 91-65 148-52 36 8 66 29 87 56 28-9 59-12 91-5 71 16 122 73 133 140 16-1 32 0 49 3 72 16 122 78 125 149a249 249 0 0 1 280-138 249.6 249.6 0 0 1 127 416 307 307 0 0 1 304-107c101 22 179 93 215 182 25-6 52-7 79-1 11 3 22 6 33 11l-3890 2c-17-44 550-217 599-206z"/><path d="M7517 625c-19 4-36 11-52 21a367.2 367.2 0 0 0-386-155c-29 6-57 16-82 29-55-18-115-22-175-8-39 9-74 24-106 44-20-82-88-139-167-148-23-80-96-134-177-137a255.2 255.2 0 0 0-309-217c-73 16-131 62-166 121a147 147 0 0 0-148-52c-36 8-66 29-87 56-28-9-59-12-91-5-71 16-122 73-133 140-16-1-32 0-49 3-72 16-122 78-125 149a249 249 0 0 0-280-138 249.6 249.6 0 0 0-127 416 307 307 0 0 0-304-107 301.4 301.4 0 0 0-215 182c-25-6-52-7-79-1-11 3-22 6-33 11l3890 2c17-44-549-217-599-206z"/></g><path fill="#a7b7c7" d="M0 800h8440v10H0z"/></svg>