<svg xmlns="http://www.w3.org/2000/svg" xmlns:xlink="http://www.w3.org/1999/xlink" width="0" height="0">
  <defs>
    <path id="starShape" d="M12.8039636,1.49723481 L15.73799,7.69075638 L22.2295235,8.68025391 C22.9630301,8.79019808 23.2564327,9.74304755 22.7063028,10.2561203 L18.0118605,15.0936638 L19.1121204,21.8735543 C19.2221464,22.6431635 18.4886398,23.2295324 17.8284839,22.8630518 L11.9971064,19.6380228 L6.16572885,22.8630518 C5.50557291,23.2295324 4.73539097,22.6431635 4.8820923,21.8735543 L5.9823522,15.0936638 L1.2512346,10.2561203 C0.737779979,9.7063995 1.03118262,8.79019808 1.7280139,8.68025391 L8.25622268,7.69075638 L11.1902491,1.49723481 C11.5203271,0.800921731 12.4738857,0.800921731 12.8039636,1.49723481 L12.8039636,1.49723481 Z"/>
  </defs>

  <symbol viewBox="0 0 24 24" id="star" xmlns="http://www.w3.org/2000/svg">
    <use xlink:href="#starShape" id="Shape" />
  </symbol>
  <symbol viewBox="0 0 24 24" id="Q" xmlns="http://www.w3.org/2000/svg">
    <path d="M11.698855,5 C15.5173453,5 18.3058461,8.04784283 18.3612342,11.877042 L18.3620625,12.0267133 C18.3737192,13.5783945 17.8932103,15.0863128 17.0012598,16.3275548 L16.9106962,16.4507819 L16.8843803,16.4848324 L18.68,18.018558 L17.4639002,19.4 L15.6518462,17.7299182 L15.5922109,17.7759383 C14.5333765,18.5688604 13.2639569,19.016372 11.954208,19.0573123 L11.808523,19.060185 L11.662558,19.0596928 C7.84686921,19.0535328 5.05627113,16.0072675 5.00084074,12.1825157 L5,12.0298466 C5,8.14684348 7.84137743,5 11.698855,5 Z M11.5715144,6.68 C8.79760228,6.68 6.72972586,8.89717863 6.68088384,11.8177222 L6.68,11.9597335 C6.68,14.9247139 8.81689703,17.239467 11.6344381,17.2395111 C12.5449185,17.2527082 13.4349492,16.9984121 14.1986186,16.5141562 L14.3163107,16.4364839 L11.9517255,14.4062772 L13.1440282,13.0269843 L15.5192101,15.2181103 L15.5748912,15.1389176 C16.176971,14.2574189 16.5077836,13.2117808 16.52,12.1311333 L16.5198643,11.9597335 C16.5198643,8.99283052 14.3839628,6.68 11.5715144,6.68 Z"></path>
  </symbol>
</svg>
