<?xml version="1.0" encoding="UTF-8"?>
<svg width="196px" height="60px" viewBox="0 0 196 60" version="1.1" xmlns="http://www.w3.org/2000/svg" xmlns:xlink="http://www.w3.org/1999/xlink">
    <g id="q-central-logo_mini" stroke="none" stroke-width="1" fill="none" fill-rule="evenodd">
        <g id="q-logo-mini">
            <path d="M60,30.0000867 C60,46.5685456 46.5685068,60 30,60 C13.4313199,60 0,46.5685456 0,30.0000867 C0,13.4314544 13.4313199,0 30,0 C46.5685068,0 60,13.4314544 60,30.0000867" id="oval_shape" fill="#062F5F"></path>
            <path d="M29.7058643,14 C38.6340696,14 45.164852,20.9637333 45.3228115,29.7440311 L45.3257405,30.1565964 C45.3257405,33.8580453 44.1536116,37.3946444 42.0159706,40.217531 L41.7650467,40.5400501 L41.7368664,40.5729624 L46,44.1704845 L43.3926984,47 L39.1232157,43.1452533 L39.0222199,43.2253359 C36.6175875,45.0612341 33.6963781,46.1263824 30.4842457,46.2882449 L30.0444455,46.3047057 L29.6197039,46.3099039 C20.6916658,46.3099039 14.1608884,39.3460089 14.0029289,30.5657001 L14,30.1565964 C14,21.2241563 20.6654507,14 29.7058643,14 Z M29.6197039,17.5078864 C22.9541501,17.5078864 17.9480408,22.8091936 17.7978707,29.7486173 L17.7943994,30.1565964 C17.7943994,37.2494803 22.93582,42.8020175 29.7058643,42.8020175 C32.1527827,42.8020175 34.4023763,42.1040648 36.2786842,40.8004678 L36.3889348,40.7208415 L30.7467331,35.8841694 L33.3384254,32.9974655 L38.9834859,38.1636403 L39.1586881,37.9274017 C40.6158305,35.8955292 41.453015,33.3526094 41.526112,30.6298377 L41.531341,30.1565964 C41.531341,23.060926 36.3902266,17.5078864 29.6197039,17.5078864 Z" id="Q" fill="#FFFFFF" fill-rule="nonzero"></path>
        </g>
        <path d="M82.91437,43 C85.558202,43 87.9052774,42.2637954 89.955596,40.7913861 L89.955596,40.7913861 L88.7011247,38.3819892 C86.8666291,39.5331455 85.0186445,40.1087237 83.1571709,40.1087237 C80.9719628,40.1087237 79.3128233,39.3792118 78.1797525,37.9201881 C77.0466816,36.4611644 76.4801462,34.5537252 76.4801462,32.1978704 C76.4801462,29.7884735 77.0466816,27.8676487 78.1797525,26.4353961 C79.3128233,25.0031435 80.9854518,24.2870171 83.1976377,24.2870171 C85.2749343,24.2870171 87.095941,24.8625953 88.6606579,26.0137516 L88.6606579,26.0137516 L90.0365297,23.6445113 C89.1192818,22.9484633 88.0738891,22.406349 86.9003514,22.0181684 C85.7268137,21.6299877 84.4925758,21.4358974 83.1976377,21.4358974 C80.0142482,21.4358974 77.5187945,22.4130417 75.7112767,24.3673304 C73.9037589,26.321619 73,28.931799 73,32.1978704 C73,34.0718458 73.330479,35.8253514 73.991437,37.4583871 C74.652395,39.0914228 75.7247656,40.4232838 77.2085489,41.4539703 C78.6923322,42.4846568 80.5942725,43 82.91437,43 Z M102.907735,43 C104.503746,43 105.95774,42.7858314 107.269715,42.3574942 C108.58169,41.9291569 109.819275,41.3000366 110.98247,40.4701332 L110.98247,40.4701332 L109.440561,38.2615194 C108.439672,38.9307963 107.445547,39.432754 106.458184,39.7673924 C105.470821,40.1020309 104.354966,40.2693501 103.110618,40.2693501 C101.000637,40.2693501 99.3775746,39.6536154 98.241431,38.4221458 C97.1052874,37.1906763 96.469588,35.5308695 96.3343328,33.4427255 L96.3343328,33.4427255 L111.672272,33.4427255 C111.726374,33.1214726 111.753425,32.6395932 111.753425,31.9970873 C111.753425,28.8113292 110.962182,26.2546913 109.379696,24.3271738 C107.79721,22.3996562 105.504635,21.4358974 102.50197,21.4358974 C100.473142,21.4358974 98.7351125,21.884313 97.2878819,22.7811441 C95.8406514,23.6779751 94.7383215,24.929523 93.9808925,26.5357876 C93.2234634,28.1420522 92.8447489,30.0026421 92.8447489,32.1175572 C92.8447489,35.4103997 93.7306704,38.0473507 95.5025134,40.0284104 C97.2743564,42.0094701 99.7427636,43 102.907735,43 Z M108.383562,30.7307692 L96.2146119,30.7307692 C96.2962827,28.7921245 96.8679783,27.1920788 97.9296988,25.9306319 C98.9914192,24.669185 100.488717,24.0384615 102.421593,24.0384615 C104.327245,24.0384615 105.783708,24.6492674 106.790981,25.8708791 C107.798254,27.0924908 108.329114,28.7124542 108.383562,30.7307692 L108.383562,30.7307692 Z M120.547585,42.4423077 L120.547585,30.7140633 C120.547585,28.8664632 121.109844,27.3334906 122.234364,26.1151456 C123.358883,24.8968006 124.855984,24.2876281 126.725667,24.2876281 C128.541156,24.2876281 129.855353,24.8164702 130.668259,25.8741543 C131.481164,26.9318384 131.887617,28.2773733 131.887617,29.9107589 L131.887617,29.9107589 L131.887617,42.4423077 L135.342466,42.4423077 L135.342466,29.2279502 C135.342466,27.0054747 134.712464,25.1511803 133.45246,23.6650672 C132.192457,22.178954 130.261806,21.4358974 127.660508,21.4358974 C125.980503,21.4358974 124.530822,21.750525 123.311464,22.3797801 C122.092105,23.0090352 121.143715,23.8458107 120.466294,24.8901064 L120.466294,24.8901064 L120.385004,24.8901064 C120.33081,23.6851498 120.235971,22.7211845 120.100487,21.9982105 L120.100487,21.9982105 L116.808219,21.9982105 C116.997897,23.5512657 117.092736,25.0775441 117.092736,26.5770456 L117.092736,26.5770456 L117.092736,42.4423077 L120.547585,42.4423077 Z M148.416984,43 C149.637169,43 150.70822,42.8265323 151.630137,42.4795969 L151.630137,42.4795969 L151.10139,39.9576431 C150.47774,40.1444545 149.79986,40.2378602 149.067749,40.2378602 C147.034108,40.2378602 146.017287,39.1436792 146.017287,36.9553173 L146.017287,36.9553173 L146.017287,24.6657968 L151.508119,24.6657968 L151.508119,22.0637811 L146.017287,22.0637811 L146.017287,15.8589744 L142.519425,17.0599047 L142.519425,22.0637811 L138.899543,22.4640912 L138.899543,24.6657968 L142.560097,24.6657968 L142.560097,37.2355344 C142.560097,39.0769609 143.082065,40.4980618 144.126001,41.4988371 C145.169937,42.4996124 146.600265,43 148.416984,43 Z M159.889053,42.4423077 L159.889053,31.4772025 C159.889053,29.3886111 160.421172,27.6882834 161.485409,26.3762195 C162.549647,25.0641557 164.077784,24.4081237 166.069819,24.4081237 C166.64287,24.4081237 167.065836,24.4349006 167.338718,24.4884542 L167.338718,24.4884542 L167.543379,21.5563931 C166.970328,21.4760627 166.57465,21.4358974 166.356344,21.4358974 C163.190919,21.4358974 161.007867,22.7077961 159.807188,25.2515934 L159.807188,25.2515934 L159.725324,25.2515934 C159.670747,23.9930831 159.575239,22.9086222 159.438798,21.9982105 L159.438798,21.9982105 L156.123288,21.9982105 C156.314305,23.5512657 156.409813,25.0775441 156.409813,26.5770456 L156.409813,26.5770456 L156.409813,42.4423077 L159.889053,42.4423077 Z M175.16024,43 C176.979804,43 178.466687,42.7189037 179.620888,42.1567111 C180.775089,41.5945185 181.732398,40.7646151 182.492812,39.6670009 L182.492812,39.6670009 L182.615022,39.6670009 C182.615022,40.3362778 182.710074,41.25988 182.900178,42.4378074 L182.900178,42.4378074 L186.077626,42.4378074 C185.887522,40.8850849 185.79247,39.3725191 185.79247,37.9001098 L185.79247,37.9001098 L185.79247,29.5475338 C185.79247,26.8168839 185.120318,24.7822821 183.776013,23.4437282 C182.431708,22.1051744 180.30662,21.4358974 177.400748,21.4358974 C174.630665,21.4358974 172.077844,22.145331 169.742284,23.5641981 L169.742284,23.5641981 L170.964379,25.8531251 C172.919732,24.7019688 174.997294,24.1263907 177.197066,24.1263907 C178.935157,24.1263907 180.225147,24.5011858 181.067035,25.2507759 C181.908922,26.0003661 182.329866,27.1381368 182.329866,28.6640882 L182.329866,28.6640882 L182.329866,29.8286301 C181.841028,29.801859 181.12135,29.7884735 180.170831,29.7884735 C176.260126,29.7884735 173.333886,30.3038167 171.392113,31.3345032 C169.450339,32.3651896 168.479452,34.2057012 168.479452,36.8560378 C168.479452,38.8370975 169.0905,40.3563561 170.312595,41.4138137 C171.534691,42.4712712 173.150572,43 175.16024,43 Z M176.040842,40.3974359 C174.787792,40.3974359 173.807144,40.0802446 173.098898,39.4458619 C172.390653,38.8114792 172.03653,37.9003977 172.03653,36.7126174 C172.03653,35.5518321 172.329362,34.6474994 172.915027,33.9996192 C173.500692,33.351739 174.399619,32.8928239 175.611809,32.6228738 C176.823999,32.3529238 178.451602,32.2179487 180.494618,32.2179487 L180.494618,32.2179487 L182.333333,32.2584412 L182.333333,34.9309469 C182.333333,35.7947872 182.088171,36.6451299 181.597847,37.4819751 C181.107523,38.3188203 180.385658,39.0139418 179.43225,39.5673394 C178.478842,40.1207371 177.348373,40.3974359 176.040842,40.3974359 Z M196,42.4423077 L196,14 L192.630137,14 L192.630137,42.4423077 L196,42.4423077 Z" id="central" fill="#062F5F" fill-rule="nonzero"></path>
    </g>
</svg>
