<svg width="424" height="253" viewBox="0 0 424 253" fill="none" xmlns="http://www.w3.org/2000/svg">
<path d="M164.337 250.706C199.863 241.64 223.044 235.653 233.878 232.744C243.045 230.283 247.578 228.369 248.318 225.613C248.89 223.483 248.234 220.518 239.19 218.482C222.35 215.375 180.544 211.189 169.949 209.606C159.354 208.023 122.106 205.431 122.19 194.308C122.274 183.185 150.115 180.302 160.936 178.635C171.757 176.968 174.568 174.14 174.568 171.087C174.568 169.052 169.486 166.387 159.322 163.094" stroke="#C2E8FF" stroke-width="3" stroke-linecap="round" stroke-linejoin="round"/>
<path d="M181.183 162.5C193.178 164.214 200.384 165.868 202.802 167.462C206.43 169.853 207.695 175.123 201.597 177.603C197.531 179.256 192.587 180.881 186.765 182.479C182.207 184.396 179.929 186.466 179.929 188.688C179.929 192.02 182.839 193.87 190.792 195.125C198.744 196.38 258.596 201.543 263.194 201.757C267.792 201.971 342.888 207.905 370.609 215.472C398.33 223.038 410.051 231.301 411.592 237.705C412.62 241.975 411.385 245.483 407.888 248.231" stroke="#C2E8FF" stroke-width="3" stroke-linecap="round" stroke-linejoin="round"/>
<path d="M422.035 162.5H181.07" stroke="#C2E8FF" stroke-width="3" stroke-linecap="round"/>
<path d="M383 162L309.5 101L251.5 146" stroke="#C2E8FF" stroke-width="3" stroke-linecap="round" stroke-linejoin="round"/>
<path d="M268 131.943L251.5 117L196 161" stroke="#C2E8FF" stroke-width="3" stroke-linecap="round" stroke-linejoin="round"/>
<path fill-rule="evenodd" clip-rule="evenodd" d="M195.894 140.969L199.393 157.43L193.469 162.002L188.534 162.366L193.947 140.932C194.082 140.397 194.626 140.072 195.161 140.207C195.531 140.301 195.815 140.596 195.894 140.969Z" fill="#C2E8FF"/>
<path fill-rule="evenodd" clip-rule="evenodd" d="M88.5 176.515V60L71.5 55V222.672C71.4876 224.601 70.8736 226.503 70 228.378C69.1264 230.253 66.9071 232.627 64 234.5H96C93.1883 232.694 91.6522 230.597 90.5 229.21C89.3478 227.822 88.7173 225.945 88.5 223.578V193.367C88.7249 193.22 88.4383 193.047 88.636 192.849L109.849 171.636C111.411 170.074 111.411 167.541 109.849 165.979L107.021 163.151C105.459 161.589 102.926 161.589 101.364 163.151L88.5 176.515Z" fill="#C2E8FF"/>
<path fill-rule="evenodd" clip-rule="evenodd" d="M72.5676 55.6294L87.9478 60.696V64.0339L71.1704 59.126L72.5676 55.6294Z" fill="white"/>
<path fill-rule="evenodd" clip-rule="evenodd" d="M88.5 176.515V60L71.5 55V222.672C71.4876 224.601 70.8736 226.503 70 228.378C69.1264 230.253 66.9071 232.627 64 234.5H96C93.1883 232.694 91.6522 230.597 90.5 229.21C89.3478 227.822 88.7173 225.945 88.5 223.578V193.367C88.7249 193.22 88.4383 193.047 88.636 192.849L109.849 171.636C111.411 170.074 111.411 167.541 109.849 165.979L107.021 163.151C105.459 161.589 102.926 161.589 101.364 163.151L88.5 176.515Z" stroke="#8CD3F8" stroke-width="3" stroke-linecap="round" stroke-linejoin="round"/>
<path d="M48 234.5H120" stroke="#8CD3F8" stroke-width="3" stroke-linecap="round"/>
<path d="M39 234.5H42" stroke="#8CD3F8" stroke-width="3" stroke-linecap="round"/>
<path fill-rule="evenodd" clip-rule="evenodd" d="M96.9822 223.454L99 234H93L95.0178 223.454C95.1216 222.911 95.6455 222.556 96.1879 222.66C96.5904 222.737 96.9052 223.051 96.9822 223.454Z" fill="#8CD3F8"/>
<path fill-rule="evenodd" clip-rule="evenodd" d="M100.969 226.091L103 234H97L99.0314 226.091C99.1688 225.556 99.7139 225.234 100.249 225.371C100.602 225.462 100.878 225.738 100.969 226.091Z" fill="#8CD3F8"/>
<path fill-rule="evenodd" clip-rule="evenodd" d="M61.9686 226.091L64 234H58L60.0314 226.091C60.1688 225.556 60.7139 225.234 61.2488 225.371C61.602 225.462 61.8778 225.738 61.9686 226.091Z" fill="#8CD3F8"/>
<path fill-rule="evenodd" clip-rule="evenodd" d="M5 72H153C155.209 72 157 73.7909 157 76V164C157 166.209 155.209 168 153 168H5C2.79086 168 1 166.209 1 164V147.935L7 145.6L1 143.889V139.223L11 135.907L1 131.213V76C1 73.7909 2.79086 72 5 72Z" fill="#C2E8FF"/>
<path fill-rule="evenodd" clip-rule="evenodd" d="M1.5 72.5H157.5V168.5H1.5V148.436L7.5 146.101L1.5 144.39V139.724L11.5 136.407L1.5 131.713V72.5Z" stroke="#8CD3F8" stroke-width="3" stroke-linecap="round" stroke-linejoin="round"/>
<path d="M156 104.5H1" stroke="#8CD3F8" stroke-width="3" stroke-linejoin="round"/>
<path d="M156 136.5H10" stroke="#8CD3F8" stroke-width="3" stroke-linejoin="round"/>
<path d="M147 85C148.657 85 150 83.6569 150 82C150 80.3431 148.657 79 147 79C145.343 79 144 80.3431 144 82C144 83.6569 145.343 85 147 85Z" fill="#8CD3F8"/>
<path d="M147 161C148.657 161 150 159.657 150 158C150 156.343 148.657 155 147 155C145.343 155 144 156.343 144 158C144 159.657 145.343 161 147 161Z" fill="#8CD3F8"/>
<path d="M11 85C12.6569 85 14 83.6569 14 82C14 80.3431 12.6569 79 11 79C9.34315 79 8 80.3431 8 82C8 83.6569 9.34315 85 11 85Z" fill="#8CD3F8"/>
<path d="M11 161C12.6569 161 14 159.657 14 158C14 156.343 12.6569 155 11 155C9.34315 155 8 156.343 8 158C8 159.657 9.34315 161 11 161Z" fill="#8CD3F8"/>
<path d="M156 74H3V77H156V74Z" fill="#D4504C"/>
<path fill-rule="evenodd" clip-rule="evenodd" d="M337.421 134.454L351.759 183.943C352.067 185.004 351.456 186.114 350.395 186.421C350.214 186.473 350.027 186.5 349.838 186.5H321.162C320.057 186.5 319.162 185.605 319.162 184.5C319.162 184.312 319.188 184.124 319.241 183.943L333.579 134.454C333.886 133.393 334.996 132.783 336.057 133.09C336.715 133.281 337.23 133.796 337.421 134.454Z" fill="white"/>
<path fill-rule="evenodd" clip-rule="evenodd" d="M335.5 132.824L352.5 186.5H318.5L335.5 132.824Z" stroke="#C2E8FF" stroke-width="3" stroke-linecap="round" stroke-linejoin="round"/>
<path fill-rule="evenodd" clip-rule="evenodd" d="M335.5 137.195C335.5 175.546 335.5 195.147 335.5 196C335.5 195.147 335.5 175.546 335.5 137.195Z" stroke="#C2E8FF" stroke-width="3" stroke-linecap="round" stroke-linejoin="round"/>
<path fill-rule="evenodd" clip-rule="evenodd" d="M343.5 161.824C338.167 168.285 335.5 171.618 335.5 171.824C335.5 171.618 338.167 168.285 343.5 161.824Z" stroke="#C2E8FF" stroke-width="3" stroke-linecap="round" stroke-linejoin="round"/>
<path fill-rule="evenodd" clip-rule="evenodd" d="M371.648 99.5L396.879 183.927C397.195 184.986 396.594 186.1 395.535 186.416C395.35 186.472 395.157 186.5 394.963 186.5H348.333C347.228 186.5 346.333 185.605 346.333 184.5C346.333 184.306 346.361 184.113 346.417 183.927L371.648 99.5Z" fill="white"/>
<path fill-rule="evenodd" clip-rule="evenodd" d="M371.5 99.5L397.5 186.5H345.5L371.5 99.5Z" stroke="#C2E8FF" stroke-width="3" stroke-linecap="round" stroke-linejoin="round"/>
<path fill-rule="evenodd" clip-rule="evenodd" d="M371.5 103.086C371.5 163.526 371.5 194.497 371.5 196C371.5 194.497 371.5 163.526 371.5 103.086Z" stroke="#C2E8FF" stroke-width="3" stroke-linecap="round" stroke-linejoin="round"/>
<path fill-rule="evenodd" clip-rule="evenodd" d="M361.648 136.5C367.648 140.912 370.648 143.245 370.648 143.5C370.648 143.245 367.648 140.912 361.648 136.5Z" stroke="#C2E8FF" stroke-width="3" stroke-linecap="round" stroke-linejoin="round"/>
<path fill-rule="evenodd" clip-rule="evenodd" d="M372.648 167.5C381.981 156.579 386.648 151.245 386.648 151.5C386.648 151.245 381.981 156.579 372.648 167.5Z" stroke="#C2E8FF" stroke-width="3" stroke-linecap="round" stroke-linejoin="round"/>
<path d="M126 18.5H145C144.279 13.0724 146.082 8.53186 150.408 4.87841C155.375 0.804437 161.273 1.71777 164.441 3.12353C167.608 4.52929 169.961 6.46069 171.591 10.1052C172.282 11.6397 172.752 12.938 173 14" stroke="#C2E8FF" stroke-width="3" stroke-linecap="round"/>
<path d="M165 21.5C166.056 17.8462 168.223 15.4573 171.501 14.3332C176.418 12.6472 181.08 14.8926 182.942 17.1518C184.805 19.4111 185.395 21.2261 185.747 23.1201C185.981 24.3828 186.065 25.8428 186 27.5C190.142 27.3314 192.919 28.1647 194.332 30C196.04 32.1936 196.215 34.8176 195.593 36.75C194.971 38.6824 192.895 41.5 189 41.5H110" stroke="#C2E8FF" stroke-width="3" stroke-linecap="round"/>
<path d="M100 28.5H165" stroke="#C2E8FF" stroke-width="3" stroke-linecap="round"/>
<path d="M82 28.5H90" stroke="#C2E8FF" stroke-width="3" stroke-linecap="round"/>
<path d="M270 63.5H289C288.279 58.0724 290.082 53.5319 294.408 49.8784C299.375 45.8044 305.273 46.7178 308.441 48.1235C311.608 49.5293 313.961 51.4607 315.591 55.1052C316.282 56.6397 316.752 57.938 317 59" stroke="#C2E8FF" stroke-width="3" stroke-linecap="round"/>
<path d="M309 66.5C310.056 62.8462 312.223 60.4573 315.501 59.3332C320.418 57.6472 325.08 59.8926 326.942 62.1518C328.805 64.4111 329.395 66.2261 329.747 68.1201C329.981 69.3828 330.065 70.8428 330 72.5C334.142 72.3314 336.919 73.1647 338.332 75C340.04 77.1936 340.215 79.8176 339.593 81.75C338.971 83.6824 336.895 86.5 333 86.5H254" stroke="#C2E8FF" stroke-width="3" stroke-linecap="round"/>
<path d="M244 73.5H309" stroke="#C2E8FF" stroke-width="3" stroke-linecap="round"/>
<path d="M226 73.5H234" stroke="#C2E8FF" stroke-width="3" stroke-linecap="round"/>
<rect x="44" y="87" width="71" height="71" rx="35.5" fill="#2E844A" stroke="white" stroke-width="4"/>
<path d="M75.5342 135.332L63.424 123.148C62.9837 122.708 62.9837 121.974 63.424 121.534L65.0387 119.919C65.4791 119.479 66.213 119.479 66.6534 119.919L75.7544 129.093C76.048 129.387 76.5618 129.387 76.8553 129.093L94.6903 111.112C95.1307 110.671 95.8647 110.671 96.305 111.112L97.9197 112.726C98.3601 113.167 98.3601 113.901 97.9197 114.341L77.1489 135.332C76.7085 135.846 75.9746 135.846 75.5342 135.332Z" fill="white"/>
</svg>
